<svg xmlns="http://www.w3.org/2000/svg" xmlns:xlink="http://www.w3.org/1999/xlink" version="1.1" width="256" height="256" viewBox="0 0 256 256" xml:space="preserve">

<defs>
</defs>
<g style="stroke: none; stroke-width: 0; stroke-dasharray: none; stroke-linecap: butt; stroke-linejoin: miter; stroke-miterlimit: 10; fill: none; fill-rule: nonzero; opacity: 1;" transform="translate(1.4065934065934016 1.4065934065934016) scale(2.81 2.81)" >
	<path d="M 19.572 87.985 c -0.785 0 -1.573 -0.248 -2.263 -0.749 c -1.462 -1.062 -1.983 -2.898 -1.295 -4.57 l 10.859 -26.399 c 0.345 -0.839 0.036 -1.793 -0.737 -2.269 L 1.834 39.023 c -1.539 -0.948 -2.197 -2.74 -1.639 -4.458 c 0.558 -1.719 2.134 -2.785 3.946 -2.644 l 28.463 2.17 c 0.895 0.064 1.716 -0.52 1.93 -1.402 l 6.731 -27.741 C 41.692 3.192 43.193 2.012 45 2.012 c 0 0 0 0 0 0 c 1.807 0 3.307 1.18 3.733 2.936 l 6.731 27.741 c 0.215 0.882 1.04 1.467 1.931 1.402 l 28.463 -2.17 c 1.807 -0.136 3.389 0.925 3.946 2.644 c 0.559 1.719 -0.1 3.51 -1.639 4.458 L 63.863 53.998 c -0.771 0.476 -1.082 1.43 -0.737 2.27 l 10.859 26.397 c 0.688 1.673 0.167 3.51 -1.295 4.571 c -1.462 1.063 -3.369 0.99 -4.746 -0.182 L 46.193 68.569 c -0.691 -0.588 -1.695 -0.588 -2.387 0 L 22.056 87.055 C 21.328 87.674 20.452 87.985 19.572 87.985 z M 3.819 33.909 c -0.96 0 -1.517 0.645 -1.722 1.274 c -0.216 0.666 -0.124 1.577 0.786 2.137 l 24.303 14.975 c 1.611 0.993 2.258 2.983 1.538 4.733 L 17.864 83.427 c -0.406 0.988 0.054 1.78 0.621 2.191 c 0.565 0.413 1.461 0.604 2.276 -0.087 l 21.751 -18.485 c 1.441 -1.227 3.535 -1.227 4.977 0 l 21.751 18.485 c 0.814 0.692 1.709 0.499 2.275 0.087 c 0.566 -0.411 1.027 -1.203 0.621 -2.192 L 61.276 57.028 c -0.72 -1.751 -0.072 -3.741 1.538 -4.733 L 87.117 37.32 c 0.909 -0.56 1.002 -1.471 0.785 -2.138 c -0.216 -0.666 -0.844 -1.347 -1.892 -1.268 l -28.463 2.17 c -1.894 0.153 -3.58 -1.086 -4.026 -2.924 L 46.79 5.42 C 46.538 4.382 45.7 4.012 45 4.012 l 0 0 c -0.701 0 -1.539 0.37 -1.791 1.408 l -6.731 27.741 c -0.445 1.838 -2.131 3.077 -4.026 2.925 l -28.463 -2.17 C 3.931 33.911 3.875 33.909 3.819 33.909 z" style="stroke: none; stroke-width: 1; stroke-dasharray: none; stroke-linecap: butt; stroke-linejoin: miter; stroke-miterlimit: 10; fill: rgb(0,0,0); fill-rule: nonzero; opacity: 1;" transform=" matrix(1 0 0 1 0 0) " stroke-linecap="round" />
	<path d="M 69.577 40.71 c -0.173 -0.525 -0.739 -0.812 -1.263 -0.637 l -18.257 6.01 c -0.819 -1.518 -2.302 -2.622 -4.057 -2.932 V 26.244 c 0 -0.552 -0.448 -1 -1 -1 s -1 0.448 -1 1 v 16.906 c -1.747 0.309 -3.225 1.404 -4.047 2.912 l -17.937 -5.989 c -0.524 -0.171 -1.09 0.108 -1.266 0.632 c -0.175 0.524 0.108 1.09 0.632 1.266 l 17.943 5.99 c -0.041 0.275 -0.068 0.554 -0.068 0.84 c 0 1.538 0.611 2.933 1.599 3.965 L 29.189 68.691 c -0.327 0.445 -0.23 1.071 0.216 1.397 c 0.178 0.131 0.385 0.193 0.59 0.193 c 0.308 0 0.612 -0.142 0.808 -0.409 l 11.667 -15.926 c 0.765 0.378 1.622 0.596 2.531 0.596 c 0.909 0 1.766 -0.218 2.531 -0.595 l 11.666 15.926 c 0.196 0.268 0.5 0.409 0.808 0.409 c 0.205 0 0.412 -0.063 0.59 -0.193 c 0.445 -0.326 0.542 -0.952 0.216 -1.397 L 49.144 52.766 c 0.988 -1.032 1.599 -2.427 1.599 -3.965 c 0 -0.278 -0.027 -0.549 -0.065 -0.816 l 18.261 -6.012 C 69.464 41.8 69.749 41.234 69.577 40.71 z M 41.257 48.801 c 0 -2.064 1.679 -3.743 3.743 -3.743 c 2.064 0 3.743 1.679 3.743 3.743 c 0 2.063 -1.679 3.742 -3.743 3.742 C 42.937 52.543 41.257 50.864 41.257 48.801 z" style="stroke: none; stroke-width: 1; stroke-dasharray: none; stroke-linecap: butt; stroke-linejoin: miter; stroke-miterlimit: 10; fill: rgb(0,0,0); fill-rule: nonzero; opacity: 1;" transform=" matrix(1 0 0 1 0 0) " stroke-linecap="round" />
</g>
</svg>